<svg xmlns="http://www.w3.org/2000/svg" width="488" height="256" viewBox="0 0 488 256">
  <g fill="#FFF" fill-rule="evenodd" transform="translate(-6 -22)">
    <polygon points="68.703 200.373 68.703 151.535 35.209 151.535 35.209 200.373 7.82 200.373 7.82 86.033 35.209 86.033 35.209 130.251 68.703 130.251 68.703 86.033 96.092 86.033 96.092 200.373"/>
    <path d="M143.6131,155.9897 L168.0321,155.9897 L156.3171,107.6467 L155.4921,107.6467 L143.6131,155.9897 Z M172.4861,175.7887 L139.3231,175.7887 L133.3831,200.3727 L104.5091,200.3727 L139.6531,86.0327 L172.8161,86.0327 L207.7951,200.3727 L178.4261,200.3727 L172.4861,175.7887 Z"/>
    <polygon points="216.213 200.373 216.213 86.033 243.602 86.033 243.602 178.759 288.315 178.759 285.345 200.373"/>
    <polygon points="296.566 200.373 296.566 86.033 323.955 86.033 323.955 178.759 368.668 178.759 365.698 200.373"/>
    <g transform="translate(6 22)">
      <path d="M17.8572 54.1142C10.0162 54.1142 4.0662 51.3842.0762 47.4632L5.0452 42.0032C8.4762 45.1532 12.5372 46.9732 17.5072 46.9732 22.6882 46.9732 26.4682 44.4532 26.4682 39.7622 26.4682 35.7722 24.3682 33.8822 17.0172 31.5722 6.6562 28.4212 2.3852 24.3612 2.3852 17.0102 2.3852 8.8192 9.5262 3.6382 18.9772 3.6382 26.0482 3.6382 30.8082 5.7392 34.9392 9.5892L30.2492 14.9102C26.9592 11.9692 23.5282 10.7092 19.6072 10.7092 15.1272 10.7092 11.9772 12.6702 11.9772 16.4502 11.9772 19.9502 13.7272 21.4902 21.7782 24.0102 30.2492 26.7412 36.1292 30.1712 36.1292 39.2022 36.1292 47.9532 29.2682 54.1142 17.8572 54.1142M62.5174 43.0527L62.5174 35.6327 59.3674 35.6327C52.4364 35.6327 49.9854 37.9427 49.9854 42.0027 49.9854 45.6427 51.6654 47.6037 55.3754 47.6037 58.3164 47.6037 60.7664 45.9237 62.5174 43.0527zM71.1984 43.4727C71.1984 46.2737 71.9674 47.3237 73.7884 48.0237L71.8284 53.9737C67.9074 53.6237 65.2464 52.2237 63.8474 49.0037 61.1864 52.5037 57.0564 54.1147 52.5764 54.1147 45.0154 54.1147 40.3944 49.4237 40.3944 42.4927 40.3944 34.6517 46.6254 30.2417 57.9664 30.2417L62.5174 30.2417 62.5174 28.1417C62.5174 23.4507 60.3464 21.8407 55.1654 21.8407 52.7864 21.8407 49.2864 22.4007 45.5044 23.7307L43.3344 17.5707C48.0254 15.8207 52.7154 14.9797 56.4964 14.9797 66.9274 14.9797 71.1984 19.4607 71.1984 27.5807L71.1984 43.4727zM82.0447 53.0639L82.0447 16.0299 89.8157 16.0299 90.4457 20.6499C93.5967 16.8699 97.3067 14.9799 101.2967 14.9799 106.0577 14.9799 108.9277 17.0099 110.2577 20.6499 113.4077 17.0099 117.3987 14.9799 121.3187 14.9799 128.1097 14.9799 131.1197 19.0409 131.1197 25.9709L131.1197 53.0639 122.1587 53.0639 122.1587 27.1609C122.1587 23.2409 121.0387 21.7009 118.1687 21.7009 115.5087 21.7009 112.9187 23.9409 111.0987 26.8109L111.0987 53.0639 102.1377 53.0639 102.1377 27.0219C102.1377 23.1709 100.9467 21.7009 98.1467 21.7009 95.4857 21.7009 92.8257 23.9409 91.0057 26.8109L91.0057 53.0639 82.0447 53.0639zM160.657 43.0527L160.657 35.6327 157.507 35.6327C150.576 35.6327 148.126 37.9427 148.126 42.0027 148.126 45.6427 149.805 47.6037 153.515 47.6037 156.456 47.6037 158.906 45.9237 160.657 43.0527zM169.338 43.4727C169.338 46.2737 170.107 47.3237 171.928 48.0237L169.968 53.9737C166.048 53.6237 163.386 52.2237 161.987 49.0037 159.327 52.5037 155.196 54.1147 150.716 54.1147 143.155 54.1147 138.534 49.4237 138.534 42.4927 138.534 34.6517 144.764 30.2417 156.106 30.2417L160.657 30.2417 160.657 28.1417C160.657 23.4507 158.486 21.8407 153.305 21.8407 150.926 21.8407 147.426 22.4007 143.645 23.7307L141.474 17.5707C146.165 15.8207 150.855 14.9797 154.636 14.9797 165.067 14.9797 169.338 19.4607 169.338 27.5807L169.338 43.4727zM201.3269 26.8813C201.3269 23.1713 199.9269 21.7003 196.7759 21.7003 193.6959 21.7003 191.1759 24.0813 189.1449 26.8813L189.1449 53.0643 180.1839 53.0643 180.1839 16.0303 187.9559 16.0303 188.5859 20.6503C191.7359 16.9403 195.8659 14.9803 200.2069 14.9803 207.0669 14.9803 210.2879 19.0403 210.2879 25.9713L210.2879 53.0643 201.3269 53.0643 201.3269 26.8813zM242.2068 51.3139C239.6858 53.2039 236.1158 54.1139 232.9658 54.1139 224.7048 54.0439 221.7648 49.3539 221.7648 41.7929L221.7648 22.4009 216.0938 22.4009 216.0938 16.0299 221.7648 16.0299 221.7648 7.8389 230.7258 6.7889 230.7258 16.0299 239.7568 16.0299 238.7758 22.4009 230.7258 22.4009 230.7258 41.7929C230.7258 45.4329 231.9158 46.9029 234.6448 46.9029 236.1158 46.9029 237.4458 46.4829 239.0568 45.5029L242.2068 51.3139zM247.3836 53.0639L247.3836 1.2589 256.3446.3489 256.3446 20.2309C259.3556 16.8699 263.1356 14.9799 267.4056 14.9799 274.2666 14.9799 277.4876 19.0409 277.4876 25.9709L277.4876 53.0639 268.5266 53.0639 268.5266 26.8809C268.5266 23.1709 267.1256 21.7009 263.9756 21.7009 260.8956 21.7009 258.3746 24.0809 256.3446 26.8809L256.3446 53.0639 247.3836 53.0639zM306.9558 43.0527L306.9558 35.6327 303.8058 35.6327C296.8748 35.6327 294.4248 37.9427 294.4248 42.0027 294.4248 45.6427 296.1038 47.6037 299.8138 47.6037 302.7548 47.6037 305.2048 45.9237 306.9558 43.0527zM315.6368 43.4727C315.6368 46.2737 316.4058 47.3237 318.2268 48.0237L316.2668 53.9737C312.3468 53.6237 309.6848 52.2237 308.2858 49.0037 305.6258 52.5037 301.4948 54.1147 297.0148 54.1147 289.4538 54.1147 284.8328 49.4237 284.8328 42.4927 284.8328 34.6517 291.0628 30.2417 302.4048 30.2417L306.9558 30.2417 306.9558 28.1417C306.9558 23.4507 304.7848 21.8407 299.6038 21.8407 297.2248 21.8407 293.7248 22.4007 289.9438 23.7307L287.7728 17.5707C292.4638 15.8207 297.1538 14.9797 300.9348 14.9797 311.3658 14.9797 315.6368 19.4607 315.6368 27.5807L315.6368 43.4727z"/>
      <polygon points="369.095 108.052 413.773 108.02 428.496 64.373 442.139 108.153 487.139 108.142 452.261 136.482 464.9 177.938 428.045 153.024 391.513 178.136 403.954 136.119"/>
      <path d="M139.3687 221.8018C138.9877 221.3128 138.5327 220.9498 138.0017 220.7158 137.4707 220.4818 136.8917 220.3648 136.2667 220.3648 135.3817 220.3648 134.5767 220.5778 133.8527 221.0048 133.1287 221.4318 132.4797 222.0018 131.9077 222.7158 131.3347 223.4298 130.8347 224.2468 130.4077 225.1688 129.9797 226.0908 129.6287 227.0488 129.3527 228.0438 129.0767 229.0388 128.8707 230.0288 128.7357 231.0128 128.5997 231.9968 128.5327 232.9058 128.5327 233.7398 128.5327 234.7908 128.6437 235.6958 128.8687 236.4498 129.0927 237.2048 129.3997 237.8248 129.7907 238.3098 130.1807 238.7938 130.6417 239.1508 131.1737 239.3798 131.7047 239.6098 132.2717 239.7238 132.8767 239.7238 133.7617 239.7238 134.5657 239.5098 135.2907 239.0828 136.0147 238.6558 136.6627 238.0858 137.2357 237.3718 137.8077 236.6578 138.3067 235.8408 138.7277 234.9188 139.1497 233.9968 139.4987 233.0408 139.7747 232.0518 140.0507 231.0628 140.2567 230.0748 140.3917 229.0908 140.5267 228.1068 140.5957 227.1928 140.5957 226.3488 140.5957 225.3068 140.4857 224.4108 140.2667 223.6608 140.0487 222.9108 139.7487 222.2908 139.3687 221.8018M204.3218 225.3252C204.2748 224.9142 204.2328 224.5152 204.1968 224.1302 204.1598 223.7442 204.1288 223.3692 204.1028 223.0052 204.0768 222.6402 204.0578 222.2652 204.0488 221.8802 203.8918 222.2652 203.7358 222.6222 203.5798 222.9502 203.4238 223.2782 203.2568 223.6112 203.0798 223.9502 202.9018 224.2892 202.7068 224.6482 202.4938 225.0282 202.2798 225.4082 202.0328 225.8382 201.7518 226.3382L198.5798 232.0002 205.0488 232.0002 204.4698 226.6352C204.4178 226.1662 204.3688 225.7362 204.3218 225.3252M266.1113 226.1611C265.5693 226.1611 265.0693 226.3171 264.6113 226.6301 264.1523 226.9421 263.7383 227.3591 263.3693 227.8801 262.9993 228.4001 262.6733 228.9971 262.3923 229.6691 262.1113 230.3411 261.8743 231.0361 261.6813 231.7551 261.4883 232.4731 261.3453 233.1891 261.2523 233.9031 261.1583 234.6171 261.1113 235.2701 261.1113 235.8641 261.1113 237.1661 261.3303 238.0991 261.7673 238.6611 262.2053 239.2241 262.8083 239.5051 263.5803 239.5051 264.1523 239.5051 264.6713 239.3411 265.1343 239.0131 265.5973 238.6841 266.0143 238.2521 266.3843 237.7161 266.7543 237.1801 267.0743 236.5671 267.3453 235.8801 267.6163 235.1921 267.8383 234.4841 268.0093 233.7551 268.1813 233.0251 268.3113 232.3091 268.4003 231.6061 268.4883 230.9031 268.5333 230.2701 268.5333 229.7081 268.5333 228.4471 268.3163 227.5411 267.8843 226.9891 267.4523 226.4371 266.8613 226.1611 266.1113 226.1611M184.3452 222.583C184.2202 222.094 184.0272 221.695 183.7672 221.388 183.5062 221.08 183.1782 221.093 182.7832 220.963 182.3862 220.833 181.9232 221 181.3922 221L179.7672 221 177.7202 230 179.7042 230C180.3812 230 181.0142 229.755 181.6032 229.557 182.1912 229.359 182.7012 228.976 183.1342 228.554 183.5662 228.133 183.9082 227.549 184.1582 226.877 184.4072 226.205 184.5322 225.372 184.5322 224.414 184.5322 223.695 184.4702 223.072 184.3452 222.583M378.5566 225.3252C378.5096 224.9142 378.4676 224.5152 378.4316 224.1302 378.3946 223.7442 378.3636 223.3692 378.3376 223.0052 378.3116 222.6402 378.2926 222.2652 378.2836 221.8802 378.1266 222.2652 377.9706 222.6222 377.8146 222.9502 377.6586 223.2782 377.4916 223.6112 377.3146 223.9502 377.1366 224.2892 376.9416 224.6482 376.7286 225.0282 376.5146 225.4082 376.2676 225.8382 375.9866 226.3382L372.8146 232.0002 379.2836 232.0002 378.7046 226.6352C378.6526 226.1662 378.6036 225.7362 378.5566 225.3252M63.1187 222.1611C62.6347 221.6301 62.0457 221.4371 61.3527 221.1821 60.6597 220.9271 59.8867 221.0001 59.0327 221.0001L57.6887 221.0001 53.6887 240.0001 55.1267 240.0001C56.6267 240.0001 57.9647 239.4481 59.1417 238.8381 60.3187 238.2291 61.3137 237.2511 62.1267 236.1521 62.9387 235.0531 63.5577 233.6811 63.9857 232.1601 64.4127 230.6401 64.6267 228.9371 64.6267 227.1141 64.6267 226.0001 64.4957 225.0171 64.2357 224.2001 63.9747 223.3831 63.6027 222.6921 63.1187 222.1611"/>
      <path d="M428.252,224.5986 L425.986,224.5986 C425.996,224.5256 426.01,224.3956 426.025,224.2076 C426.041,224.0206 426.057,223.8256 426.072,223.6216 C426.088,223.4186 426.104,223.2316 426.119,223.0596 C426.135,222.8876 426.143,222.7816 426.143,222.7396 C426.143,222.4476 426.101,222.1716 426.018,221.9106 C425.934,221.6506 425.804,221.4216 425.627,221.2236 C425.449,221.0256 425.218,220.8716 424.932,220.7626 C424.645,220.6536 424.293,220.5986 423.877,220.5986 L419.627,220.5986 L417.924,228.5986 L425.189,228.5986 L424.768,230.5206 L417.502,230.5206 L415.58,239.5366 L420.643,239.5366 C421.143,239.5366 421.59,239.4656 421.986,239.3256 C422.382,239.1846 422.726,238.9946 423.018,238.7546 C423.309,238.5156 423.557,238.2366 423.76,237.9186 C423.963,237.6016 424.127,237.2656 424.252,236.9116 L424.768,235.5366 L427.049,235.5366 L425.564,241.4896 L407.205,241.4896 L407.549,239.7866 L407.971,239.7866 C408.304,239.7866 408.629,239.7656 408.947,239.7236 C409.265,239.6816 409.554,239.5936 409.815,239.4576 C410.074,239.3226 410.301,239.1296 410.494,238.8796 C410.687,238.6296 410.824,238.2966 410.908,237.8796 L414.236,222.1606 C414.277,222.0466 414.312,221.9156 414.338,221.7706 C414.363,221.6246 414.377,221.5096 414.377,221.4266 C414.377,221.1976 414.319,221.0096 414.205,220.8646 C414.09,220.7186 413.932,220.6066 413.729,220.5286 C413.525,220.4506 413.28,220.3986 412.994,220.3716 C412.707,220.3456 412.398,220.3326 412.065,220.3326 L411.658,220.3326 L412.002,218.6456 L429.377,218.6456 L428.252,224.5986 Z M405.346,220.5986 L402.799,220.5986 L399.111,237.9736 C399.09,238.0876 399.065,238.2186 399.033,238.3646 C399.002,238.5096 398.986,238.6246 398.986,238.7076 C398.986,238.9376 399.043,239.1216 399.158,239.2626 C399.273,239.4036 399.434,239.5126 399.643,239.5906 C399.851,239.6686 400.098,239.7206 400.385,239.7466 C400.671,239.7736 400.981,239.7866 401.315,239.7866 L401.736,239.7866 L401.393,241.4896 L390.377,241.4896 L390.736,239.7866 L391.143,239.7866 C391.476,239.7866 391.801,239.7656 392.119,239.7236 C392.437,239.6816 392.726,239.5936 392.986,239.4576 C393.246,239.3226 393.473,239.1296 393.666,238.8796 C393.858,238.6296 394.002,238.2966 394.096,237.8796 L397.705,220.5986 L395.143,220.5986 C394.643,220.5986 394.218,220.6606 393.869,220.7856 C393.52,220.9106 393.218,221.0956 392.963,221.3406 C392.707,221.5856 392.491,221.8846 392.314,222.2396 C392.137,222.5936 391.971,223.0046 391.814,223.4736 L391.361,224.8486 L389.221,224.8486 L390.689,218.6456 L410.596,218.6456 L409.486,224.8486 L407.33,224.8486 C407.34,224.7756 407.358,224.6116 407.385,224.3566 C407.41,224.1016 407.44,223.8276 407.471,223.5366 C407.502,223.2446 407.53,222.9766 407.557,222.7316 C407.582,222.4866 407.596,222.3376 407.596,222.2856 C407.596,221.7236 407.426,221.3016 407.088,221.0206 C406.749,220.7396 406.168,220.5986 405.346,220.5986 Z M387.283,241.4896 L376.721,241.4896 L377.064,239.7866 L377.799,239.7866 C378.486,239.7866 379.033,239.6796 379.439,239.4656 C379.846,239.2516 380.049,238.9116 380.049,238.4426 C380.049,238.2656 380.043,238.0906 380.033,237.9186 C380.023,237.7466 380.007,237.5826 379.986,237.4266 L379.502,233.9736 L371.721,233.9736 L370.158,236.8486 C369.949,237.2346 369.796,237.5726 369.697,237.8646 C369.598,238.1566 369.549,238.4156 369.549,238.6456 C369.549,239.0406 369.694,239.3296 369.986,239.5126 C370.277,239.6956 370.731,239.7866 371.346,239.7866 L371.986,239.7866 L371.627,241.4896 L363.314,241.4896 L363.658,239.7866 L364.33,239.7866 C364.622,239.7866 364.879,239.7516 365.104,239.6846 C365.327,239.6176 365.543,239.4896 365.752,239.3016 C365.96,239.1146 366.176,238.8596 366.4,238.5366 C366.624,238.2126 366.882,237.8016 367.174,237.3016 L378.033,218.6456 L382.408,218.6456 L385.096,237.4896 C385.148,237.8226 385.218,238.1296 385.307,238.4116 C385.395,238.6926 385.512,238.9346 385.658,239.1376 C385.804,239.3406 385.988,239.4996 386.213,239.6146 C386.437,239.7286 386.715,239.7866 387.049,239.7866 L387.627,239.7866 L387.283,241.4896 Z M356.752,241.4896 L348.08,223.3796 L345.064,237.7076 C345.012,237.9476 344.973,238.1536 344.947,238.3256 C344.921,238.4966 344.908,238.6246 344.908,238.7076 C344.908,238.9376 344.965,239.1216 345.08,239.2626 C345.194,239.4036 345.356,239.5126 345.564,239.5906 C345.773,239.6686 346.02,239.7206 346.307,239.7466 C346.593,239.7736 346.902,239.7866 347.236,239.7866 L347.346,239.7866 L346.986,241.4896 L338.924,241.4896 L339.268,239.7866 L339.689,239.7866 C340.023,239.7866 340.348,239.7656 340.666,239.7236 C340.983,239.6816 341.273,239.5936 341.533,239.4576 C341.793,239.3226 342.02,239.1296 342.213,238.8796 C342.405,238.6296 342.543,238.2966 342.627,237.8796 L345.893,222.5206 C346.027,221.9686 346.096,221.6036 346.096,221.4266 C346.096,221.1976 346.038,221.0096 345.924,220.8646 C345.809,220.7186 345.65,220.6066 345.447,220.5286 C345.244,220.4506 344.999,220.3986 344.713,220.3716 C344.426,220.3456 344.116,220.3326 343.783,220.3326 L343.377,220.3326 L343.721,218.6456 L350.83,218.6456 L358.627,235.0516 L361.314,222.4106 C361.429,221.9216 361.486,221.5936 361.486,221.4266 C361.486,221.1976 361.426,221.0096 361.307,220.8646 C361.187,220.7186 361.023,220.6066 360.814,220.5286 C360.606,220.4506 360.358,220.3986 360.072,220.3716 C359.785,220.3456 359.476,220.3326 359.143,220.3326 L359.049,220.3326 L359.408,218.6456 L367.471,218.6456 L367.111,220.3326 L366.705,220.3326 C366.371,220.3326 366.046,220.3566 365.729,220.4036 C365.41,220.4506 365.121,220.5406 364.861,220.6766 C364.601,220.8126 364.374,221.0046 364.182,221.2546 C363.988,221.5046 363.846,221.8376 363.752,222.2546 L359.689,241.4896 L356.752,241.4896 Z M337.033,241.4896 L318.674,241.4896 L319.018,239.7866 L319.439,239.7866 C319.773,239.7866 320.098,239.7656 320.416,239.7236 C320.733,239.6816 321.023,239.5936 321.283,239.4576 C321.543,239.3226 321.77,239.1296 321.963,238.8796 C322.155,238.6296 322.293,238.2966 322.377,237.8796 L325.705,222.1606 C325.746,222.0466 325.78,221.9156 325.807,221.7706 C325.832,221.6246 325.846,221.5096 325.846,221.4266 C325.846,221.1976 325.788,221.0096 325.674,220.8646 C325.559,220.7186 325.4,220.6066 325.197,220.5286 C324.994,220.4506 324.749,220.3986 324.463,220.3716 C324.176,220.3456 323.866,220.3326 323.533,220.3326 L323.127,220.3326 L323.471,218.6456 L340.846,218.6456 L339.721,224.5986 L337.455,224.5986 C337.465,224.5256 337.479,224.3956 337.494,224.2076 C337.51,224.0206 337.525,223.8256 337.541,223.6216 C337.557,223.4186 337.572,223.2316 337.588,223.0596 C337.604,222.8876 337.611,222.7816 337.611,222.7396 C337.611,222.4476 337.569,222.1716 337.486,221.9106 C337.402,221.6506 337.273,221.4216 337.096,221.2236 C336.918,221.0256 336.687,220.8716 336.4,220.7626 C336.113,220.6536 335.762,220.5986 335.346,220.5986 L331.096,220.5986 L329.393,228.5986 L336.658,228.5986 L336.236,230.5206 L328.971,230.5206 L327.049,239.5366 L332.111,239.5366 C332.611,239.5366 333.059,239.4656 333.455,239.3256 C333.851,239.1846 334.194,238.9946 334.486,238.7546 C334.777,238.5156 335.025,238.2366 335.229,237.9186 C335.432,237.6016 335.596,237.2656 335.721,236.9116 L336.236,235.5366 L338.518,235.5366 L337.033,241.4896 Z M317.197,237.7076 C316.785,238.5936 316.197,239.3376 315.432,239.9426 C314.666,240.5466 313.741,241.0076 312.658,241.3256 C311.574,241.6426 310.361,241.8016 309.018,241.8016 C307.694,241.8016 306.538,241.6816 305.549,241.4426 C304.559,241.2026 303.736,240.8746 303.08,240.4576 C302.424,240.0406 301.932,239.5486 301.604,238.9816 C301.275,238.4136 301.111,237.7966 301.111,237.1296 C301.111,236.6296 301.213,236.1926 301.416,235.8176 C301.619,235.4426 301.905,235.1296 302.275,234.8796 C302.645,234.6296 303.082,234.4426 303.588,234.3176 C304.093,234.1926 304.652,234.1296 305.268,234.1296 C305.268,235.1096 305.371,235.9576 305.58,236.6766 C305.788,237.3956 306.08,237.9926 306.455,238.4656 C306.83,238.9396 307.277,239.2906 307.799,239.5206 C308.319,239.7496 308.893,239.8646 309.518,239.8646 C310.121,239.8646 310.658,239.7786 311.127,239.6066 C311.596,239.4346 311.994,239.2006 312.322,238.9036 C312.65,238.6066 312.9,238.2576 313.072,237.8566 C313.244,237.4546 313.33,237.0256 313.33,236.5676 C313.33,236.1196 313.275,235.7076 313.166,235.3326 C313.057,234.9576 312.856,234.5936 312.564,234.2396 C312.273,233.8846 311.871,233.5256 311.361,233.1616 C310.851,232.7966 310.194,232.3956 309.393,231.9576 C308.559,231.4996 307.827,231.0286 307.197,230.5436 C306.566,230.0596 306.041,229.5356 305.619,228.9736 C305.197,228.4116 304.879,227.7936 304.666,227.1216 C304.452,226.4506 304.346,225.6926 304.346,224.8486 C304.346,223.8906 304.538,223.0096 304.924,222.2076 C305.309,221.4066 305.861,220.7156 306.58,220.1376 C307.299,219.5596 308.168,219.1116 309.189,218.7936 C310.21,218.4766 311.356,218.3176 312.627,218.3176 C313.814,218.3176 314.851,218.4116 315.736,218.5986 C316.621,218.7866 317.358,219.0406 317.947,219.3646 C318.535,219.6876 318.976,220.0676 319.268,220.5046 C319.559,220.9426 319.705,221.4106 319.705,221.9106 C319.705,222.7756 319.377,223.4546 318.721,223.9506 C318.064,224.4456 316.991,224.6926 315.502,224.6926 C315.502,224.2126 315.455,223.7126 315.361,223.1926 C315.268,222.6716 315.101,222.1956 314.861,221.7626 C314.621,221.3296 314.299,220.9736 313.893,220.6926 C313.486,220.4116 312.971,220.2706 312.346,220.2706 C311.918,220.2706 311.494,220.3376 311.072,220.4736 C310.65,220.6096 310.273,220.8126 309.939,221.0826 C309.606,221.3536 309.335,221.6956 309.127,222.1066 C308.918,222.5176 308.814,223.0046 308.814,223.5676 C308.814,224.1296 308.902,224.6096 309.08,225.0046 C309.257,225.4006 309.523,225.7676 309.877,226.1066 C310.231,226.4456 310.674,226.7736 311.205,227.0906 C311.736,227.4086 312.361,227.7596 313.08,228.1456 C314.694,229.0206 315.887,229.9866 316.658,231.0436 C317.429,232.1016 317.814,233.3126 317.814,234.6766 C317.814,235.8126 317.608,236.8226 317.197,237.7076 Z M291.58,228.9896 C290.934,229.5316 289.996,229.8016 288.768,229.8016 C288.768,229.3226 288.744,228.8876 288.697,228.4966 C288.65,228.1066 288.566,227.7736 288.447,227.4966 C288.327,227.2206 288.166,227.0096 287.963,226.8646 C287.76,226.7186 287.507,226.6456 287.205,226.6456 C286.902,226.6456 286.585,226.7676 286.252,227.0126 C285.918,227.2576 285.585,227.5936 285.252,228.0206 C284.918,228.4476 284.593,228.9546 284.275,229.5436 C283.957,230.1326 283.652,230.7736 283.361,231.4656 C283.069,232.1586 282.804,232.8846 282.565,233.6456 C282.324,234.4066 282.121,235.1766 281.955,235.9576 L280.736,241.4896 L275.908,241.4896 L278.627,228.6296 C278.658,228.4526 278.697,228.2186 278.744,227.9266 C278.791,227.6346 278.815,227.3746 278.815,227.1456 C278.815,226.7496 278.684,226.4656 278.424,226.2936 C278.163,226.1216 277.731,226.0356 277.127,226.0356 L276.549,226.0356 L276.83,224.3326 L283.908,224.3326 L283.236,228.7236 L283.393,228.7236 C283.757,227.9526 284.124,227.2756 284.494,226.6926 C284.863,226.1096 285.27,225.6196 285.713,225.2236 C286.155,224.8276 286.658,224.5286 287.221,224.3256 C287.783,224.1216 288.44,224.0206 289.19,224.0206 C290.324,224.0206 291.168,224.2346 291.721,224.6606 C292.273,225.0876 292.549,225.7076 292.549,226.5206 C292.549,227.6246 292.226,228.4476 291.58,228.9896 Z M273.143,233.1616 C272.965,234.0046 272.691,234.8356 272.322,235.6536 C271.952,236.4706 271.483,237.2516 270.916,237.9966 C270.348,238.7426 269.679,239.3956 268.908,239.9576 C268.137,240.5206 267.262,240.9686 266.283,241.3016 C265.304,241.6346 264.21,241.8016 263.002,241.8016 C262.002,241.8016 261.085,241.6626 260.252,241.3876 C259.418,241.1116 258.705,240.6956 258.111,240.1376 C257.518,239.5796 257.054,238.8796 256.721,238.0366 C256.387,237.1926 256.221,236.2076 256.221,235.0826 C256.221,234.2816 256.315,233.4526 256.502,232.5986 C256.69,231.7446 256.973,230.9066 257.354,230.0826 C257.733,229.2596 258.21,228.4816 258.783,227.7466 C259.356,227.0126 260.03,226.3696 260.807,225.8176 C261.582,225.2656 262.463,224.8276 263.447,224.5046 C264.432,224.1816 265.523,224.0206 266.721,224.0206 C267.637,224.0206 268.502,224.1486 269.315,224.4036 C270.127,224.6586 270.835,225.0566 271.44,225.5986 C272.043,226.1406 272.523,226.8356 272.877,227.6846 C273.231,228.5336 273.408,229.5516 273.408,230.7396 C273.408,231.5096 273.319,232.3176 273.143,233.1616 Z M255.611,226.5206 L251.549,226.5206 L248.518,240.8176 C248.277,241.9526 247.968,242.9476 247.588,243.8016 C247.207,244.6556 246.78,245.3926 246.307,246.0126 C245.832,246.6316 245.319,247.1456 244.767,247.5516 C244.214,247.9576 243.647,248.2806 243.064,248.5206 C242.48,248.7596 241.887,248.9286 241.283,249.0286 C240.679,249.1266 240.09,249.1766 239.517,249.1766 C239.361,249.1766 239.189,249.1686 239.002,249.1536 C238.814,249.1376 238.632,249.1166 238.455,249.0906 C238.278,249.0646 238.111,249.0356 237.955,249.0046 C237.798,248.9736 237.669,248.9426 237.564,248.9106 L237.955,247.0516 C238.132,247.1036 238.361,247.1556 238.642,247.2076 C238.923,247.2596 239.184,247.2856 239.423,247.2856 C239.945,247.2856 240.406,247.1976 240.806,247.0206 C241.208,246.8426 241.567,246.5436 241.884,246.1216 C242.202,245.7006 242.488,245.1346 242.744,244.4266 C242.999,243.7176 243.236,242.8326 243.455,241.7706 L246.69,226.5206 L243.783,226.5206 L244.095,225.0046 L247.174,224.3326 L247.424,223.1456 C247.674,222.0936 248.007,221.1736 248.424,220.3876 C248.84,219.6016 249.356,218.9456 249.971,218.4186 C250.585,217.8926 251.307,217.4996 252.135,217.2396 C252.963,216.9786 253.918,216.8486 255.002,216.8486 C255.824,216.8486 256.551,216.9216 257.182,217.0676 C257.812,217.2126 258.338,217.4116 258.76,217.6616 C259.182,217.9116 259.499,218.2046 259.713,218.5436 C259.926,218.8826 260.033,219.2446 260.033,219.6296 C260.033,220.3376 259.721,220.8906 259.096,221.2856 C258.471,221.6816 257.559,221.8796 256.361,221.8796 C256.361,221.4736 256.338,221.0796 256.291,220.7006 C256.244,220.3206 256.163,219.9846 256.049,219.6926 C255.934,219.4006 255.783,219.1686 255.596,218.9966 C255.408,218.8256 255.168,218.7396 254.877,218.7396 C254.199,218.7396 253.682,219.0316 253.322,219.6146 C252.963,220.1976 252.674,221.0876 252.455,222.2856 L252.033,224.3326 L256.065,224.3326 L255.611,226.5206 Z M235.252,224.8486 L233.095,224.8486 C233.105,224.7756 233.124,224.6116 233.15,224.3566 C233.175,224.1016 233.205,223.8276 233.236,223.5366 C233.267,223.2446 233.295,222.9766 233.322,222.7316 C233.347,222.4866 233.361,222.3376 233.361,222.2856 C233.361,221.7236 233.191,221.3016 232.853,221.0206 C232.514,220.7396 231.933,220.5986 231.111,220.5986 L228.564,220.5986 L224.877,237.9736 C224.855,238.0876 224.83,238.2186 224.798,238.3646 C224.767,238.5096 224.752,238.6246 224.752,238.7076 C224.752,238.9376 224.808,239.1216 224.923,239.2626 C225.038,239.4036 225.199,239.5126 225.408,239.5906 C225.616,239.6686 225.863,239.7206 226.15,239.7466 C226.436,239.7736 226.746,239.7866 227.08,239.7866 L227.502,239.7866 L227.158,241.4896 L216.142,241.4896 L216.502,239.7866 L216.908,239.7866 C217.241,239.7866 217.566,239.7656 217.884,239.7236 C218.202,239.6816 218.491,239.5936 218.752,239.4576 C219.011,239.3226 219.238,239.1296 219.431,238.8796 C219.624,238.6296 219.767,238.2966 219.861,237.8796 L223.47,220.5986 L220.908,220.5986 C220.408,220.5986 219.983,220.6606 219.634,220.7856 C219.285,220.9106 218.983,221.0956 218.728,221.3406 C218.472,221.5856 218.256,221.8846 218.08,222.2396 C217.902,222.5936 217.736,223.0046 217.58,223.4736 L217.127,224.8486 L214.986,224.8486 L216.455,218.6456 L236.361,218.6456 L235.252,224.8486 Z M213.048,241.4896 L202.486,241.4896 L202.83,239.7866 L203.564,239.7866 C204.252,239.7866 204.798,239.6796 205.205,239.4656 C205.611,239.2516 205.814,238.9116 205.814,238.4426 C205.814,238.2656 205.808,238.0906 205.798,237.9186 C205.788,237.7466 205.772,237.5826 205.752,237.4266 L205.267,233.9736 L197.486,233.9736 L195.923,236.8486 C195.714,237.2346 195.561,237.5726 195.462,237.8646 C195.363,238.1566 195.314,238.4156 195.314,238.6456 C195.314,239.0406 195.46,239.3296 195.752,239.5126 C196.043,239.6956 196.496,239.7866 197.111,239.7866 L197.752,239.7866 L197.392,241.4896 L189.298,241.4896 L189.08,241.4896 L188.97,241.4896 C187.855,241.4896 186.889,241.4426 186.072,241.3486 C185.253,241.2546 184.553,241.0756 183.97,240.8096 C183.386,240.5436 182.902,240.1736 182.517,239.7006 C182.131,239.2266 181.819,238.6096 181.58,237.8486 L179.564,231.5676 L177.361,231.5676 L176.111,237.4266 C176.027,237.8126 175.97,238.1016 175.939,238.2936 C175.908,238.4866 175.892,238.6246 175.892,238.7076 C175.892,238.9376 175.949,239.1216 176.064,239.2626 C176.178,239.4036 176.339,239.5126 176.548,239.5906 C176.756,239.6686 177.003,239.7206 177.291,239.7466 C177.577,239.7736 177.886,239.7866 178.22,239.7866 L179.283,239.7866 L178.923,241.4896 L167.283,241.4896 L167.627,239.7866 L168.048,239.7866 C168.381,239.7866 168.707,239.7656 169.025,239.7236 C169.342,239.6816 169.631,239.5936 169.892,239.4576 C170.152,239.3226 170.378,239.1296 170.572,238.8796 C170.764,238.6296 170.902,238.2966 170.986,237.8796 L174.252,222.5206 C174.386,221.9686 174.455,221.6036 174.455,221.4266 C174.455,221.1976 174.397,221.0096 174.283,220.8646 C174.168,220.7186 174.009,220.6066 173.806,220.5286 C173.603,220.4506 173.358,220.3986 173.072,220.3716 C172.785,220.3456 172.475,220.3326 172.142,220.3326 L171.736,220.3326 L172.08,218.6456 L182.361,218.6456 C184.913,218.6456 186.819,219.0876 188.08,219.9736 C189.339,220.8596 189.97,222.1976 189.97,223.9896 C189.97,225.0726 189.795,225.9946 189.447,226.7546 C189.097,227.5156 188.65,228.1536 188.103,228.6686 C187.556,229.1846 186.944,229.5936 186.267,229.8956 C185.589,230.1976 184.923,230.4266 184.267,230.5826 L186.486,236.5366 C186.705,237.1406 186.918,237.6506 187.127,238.0676 C187.335,238.4846 187.556,238.8206 187.791,239.0756 C188.025,239.3296 188.28,239.5126 188.556,239.6216 C188.832,239.7316 189.152,239.7866 189.517,239.7866 L189.642,239.7866 L190.095,239.7866 C190.387,239.7866 190.644,239.7516 190.869,239.6846 C191.092,239.6176 191.308,239.4896 191.517,239.3016 C191.725,239.1146 191.941,238.8596 192.166,238.5366 C192.389,238.2126 192.647,237.8016 192.939,237.3016 L203.798,218.6456 L208.173,218.6456 L210.861,237.4896 C210.913,237.8226 210.983,238.1296 211.072,238.4116 C211.16,238.6926 211.277,238.9346 211.423,239.1376 C211.569,239.3406 211.753,239.4996 211.978,239.6146 C212.202,239.7286 212.48,239.7866 212.814,239.7866 L213.392,239.7866 L213.048,241.4896 Z M155.361,237.6216 C156.288,238.6176 157.668,239.1146 159.502,239.1146 C160.241,239.1146 160.908,239.0316 161.502,238.8646 C162.095,238.6976 162.627,238.4766 163.095,238.2006 C163.564,237.9236 163.975,237.6146 164.33,237.2706 C164.683,236.9266 164.996,236.5726 165.267,236.2076 C165.392,236.3016 165.514,236.4476 165.634,236.6456 C165.753,236.8436 165.814,237.0626 165.814,237.3016 C165.814,237.8326 165.652,238.3676 165.33,238.9036 C165.006,239.4396 164.53,239.9236 163.9,240.3566 C163.269,240.7886 162.491,241.1376 161.564,241.4036 C160.636,241.6686 159.569,241.8016 158.361,241.8016 C156.83,241.8016 155.462,241.6116 154.259,241.2316 C153.056,240.8516 152.041,240.2936 151.212,239.5596 C150.384,238.8256 149.752,237.9236 149.314,236.8566 C148.877,235.7886 148.658,234.5726 148.658,233.2076 C148.658,231.9266 148.808,230.6656 149.111,229.4266 C149.413,228.1876 149.85,227.0096 150.423,225.8956 C150.996,224.7816 151.697,223.7546 152.525,222.8176 C153.353,221.8796 154.291,221.0676 155.337,220.3796 C156.384,219.6926 157.533,219.1566 158.783,218.7706 C160.033,218.3846 161.371,218.1926 162.798,218.1926 C163.861,218.1926 164.791,218.2836 165.587,218.4656 C166.384,218.6486 167.045,218.9036 167.572,219.2316 C168.097,219.5596 168.491,219.9606 168.752,220.4346 C169.011,220.9086 169.142,221.4316 169.142,222.0046 C169.142,222.4736 169.027,222.8846 168.798,223.2396 C168.569,223.5936 168.253,223.8926 167.853,224.1376 C167.452,224.3826 166.975,224.5676 166.423,224.6926 C165.871,224.8176 165.272,224.8796 164.627,224.8796 C164.627,224.4316 164.595,223.9376 164.533,223.3956 C164.47,222.8536 164.342,222.3486 164.15,221.8796 C163.957,221.4106 163.683,221.0206 163.33,220.7076 C162.975,220.3956 162.502,220.2396 161.908,220.2396 C161.064,220.2396 160.285,220.4316 159.572,220.8176 C158.858,221.2026 158.207,221.7266 157.619,222.3876 C157.03,223.0486 156.509,223.8176 156.056,224.6926 C155.603,225.5676 155.222,226.4926 154.916,227.4656 C154.608,228.4396 154.374,229.4346 154.212,230.4506 C154.05,231.4656 153.97,232.4476 153.97,233.3956 C153.97,235.2186 154.433,236.6266 155.361,237.6216 Z M145.416,230.2236 C145.17,231.3376 144.8,232.4426 144.306,233.5366 C143.811,234.6296 143.191,235.6766 142.447,236.6766 C141.702,237.6766 140.827,238.5596 139.822,239.3256 C138.816,240.0906 137.681,240.7026 136.416,241.1606 C135.15,241.6196 133.756,241.8486 132.236,241.8486 C130.975,241.8486 129.8,241.6586 128.712,241.2786 C127.624,240.8986 126.681,240.3326 125.884,239.5826 C125.087,238.8326 124.46,237.9066 124.002,236.8016 C123.543,235.6976 123.314,234.4216 123.314,232.9736 C123.314,231.9526 123.441,230.8796 123.697,229.7546 C123.952,228.6296 124.335,227.5236 124.845,226.4346 C125.355,225.3456 125.991,224.3096 126.752,223.3256 C127.511,222.3406 128.394,221.4766 129.4,220.7316 C130.405,219.9866 131.538,219.3926 132.798,218.9506 C134.058,218.5076 135.439,218.2866 136.939,218.2866 C138.116,218.2866 139.238,218.4576 140.306,218.8016 C141.374,219.1456 142.314,219.6766 143.127,220.3956 C143.939,221.1146 144.585,222.0256 145.064,223.1296 C145.543,224.2346 145.783,225.5516 145.783,227.0826 C145.783,228.0626 145.66,229.1096 145.416,230.2236 Z M122.83,220.3326 C122.486,220.3326 122.152,220.3566 121.83,220.4036 C121.506,220.4506 121.21,220.5406 120.939,220.6766 C120.668,220.8126 120.436,221.0096 120.244,221.2706 C120.05,221.5316 119.908,221.8696 119.814,222.2856 L116.533,237.9736 C116.491,238.0876 116.457,238.2186 116.431,238.3646 C116.405,238.5096 116.392,238.6246 116.392,238.7076 C116.392,238.9376 116.449,239.1216 116.564,239.2626 C116.678,239.4036 116.837,239.5126 117.041,239.5906 C117.244,239.6686 117.488,239.7206 117.775,239.7466 C118.061,239.7736 118.371,239.7866 118.705,239.7866 L119.111,239.7866 L118.767,241.4896 L107.861,241.4896 L108.205,239.7866 L108.627,239.7866 C108.97,239.7866 109.303,239.7656 109.627,239.7236 C109.949,239.6816 110.244,239.5906 110.509,239.4506 C110.775,239.3096 111.006,239.1146 111.205,238.8646 C111.402,238.6146 111.543,238.2756 111.627,237.8486 L115.017,221.8016 L104.423,241.4896 L102.22,241.4896 L99.627,221.8016 L96.236,237.7076 C96.183,237.9476 96.144,238.1536 96.119,238.3256 C96.092,238.4966 96.08,238.6246 96.08,238.7076 C96.08,238.9376 96.136,239.1216 96.252,239.2626 C96.366,239.4036 96.527,239.5126 96.736,239.5906 C96.944,239.6686 97.191,239.7206 97.478,239.7466 C97.764,239.7736 98.074,239.7866 98.408,239.7866 L98.517,239.7866 L98.158,241.4896 L90.095,241.4896 L90.439,239.7866 L90.861,239.7866 C91.194,239.7866 91.519,239.7656 91.837,239.7236 C92.155,239.6816 92.444,239.5936 92.705,239.4576 C92.964,239.3226 93.191,239.1296 93.384,238.8796 C93.577,238.6296 93.714,238.2966 93.798,237.8796 L97.064,222.5206 C97.199,221.9686 97.267,221.6036 97.267,221.4266 C97.267,221.1976 97.21,221.0096 97.095,220.8646 C96.98,220.7186 96.822,220.6066 96.619,220.5286 C96.416,220.4506 96.17,220.3986 95.884,220.3716 C95.597,220.3456 95.288,220.3326 94.955,220.3326 L94.548,220.3326 L94.892,218.6456 L103.814,218.6456 L105.97,234.1926 L114.345,218.6456 L123.595,218.6456 L123.252,220.3326 L122.83,220.3326 Z M88.205,241.4896 L69.845,241.4896 L70.189,239.7866 L70.611,239.7866 C70.944,239.7866 71.269,239.7656 71.587,239.7236 C71.905,239.6816 72.194,239.5936 72.455,239.4576 C72.714,239.3226 72.941,239.1296 73.134,238.8796 C73.327,238.6296 73.464,238.2966 73.548,237.8796 L76.877,222.1606 C76.918,222.0466 76.952,221.9156 76.978,221.7706 C77.003,221.6246 77.017,221.5096 77.017,221.4266 C77.017,221.1976 76.96,221.0096 76.845,220.8646 C76.73,220.7186 76.572,220.6066 76.369,220.5286 C76.166,220.4506 75.92,220.3986 75.634,220.3716 C75.347,220.3456 75.038,220.3326 74.705,220.3326 L74.298,220.3326 L74.642,218.6456 L92.017,218.6456 L90.892,224.5986 L88.627,224.5986 C88.636,224.5256 88.65,224.3956 88.666,224.2076 C88.681,224.0206 88.697,223.8256 88.712,223.6216 C88.728,223.4186 88.744,223.2316 88.759,223.0596 C88.775,222.8876 88.783,222.7816 88.783,222.7396 C88.783,222.4476 88.741,222.1716 88.658,221.9106 C88.574,221.6506 88.444,221.4216 88.267,221.2236 C88.089,221.0256 87.858,220.8716 87.572,220.7626 C87.285,220.6536 86.933,220.5986 86.517,220.5986 L82.267,220.5986 L80.564,228.5986 L87.83,228.5986 L87.408,230.5206 L80.142,230.5206 L78.22,239.5366 L83.283,239.5366 C83.783,239.5366 84.23,239.4656 84.627,239.3256 C85.022,239.1846 85.366,238.9946 85.658,238.7546 C85.949,238.5156 86.197,238.2366 86.4,237.9186 C86.603,237.6016 86.767,237.2656 86.892,236.9116 L87.408,235.5366 L89.689,235.5366 L88.205,241.4896 Z M68.431,234.4036 C67.916,235.4506 67.277,236.4086 66.517,237.2786 C65.756,238.1486 64.877,238.8956 63.877,239.5206 C62.877,240.1456 61.759,240.6296 60.525,240.9736 C59.291,241.3176 57.949,241.4896 56.502,241.4896 L45.236,241.4896 L45.58,239.7866 L46.033,239.7866 C46.366,239.7866 46.691,239.7656 47.009,239.7236 C47.327,239.6816 47.616,239.5936 47.877,239.4576 C48.136,239.3226 48.363,239.1296 48.556,238.8796 C48.749,238.6296 48.886,238.2966 48.97,237.8796 L52.298,222.1606 C52.339,222.0466 52.374,221.9156 52.4,221.7706 C52.425,221.6246 52.439,221.5096 52.439,221.4266 C52.439,221.1976 52.381,221.0096 52.267,220.8646 C52.152,220.7186 51.994,220.6066 51.791,220.5286 C51.587,220.4506 51.342,220.3986 51.056,220.3716 C50.769,220.3456 50.46,220.3326 50.127,220.3326 L49.72,220.3326 L50.064,218.6456 L60.298,218.6456 C61.83,218.6456 63.197,218.8326 64.4,219.2076 C65.603,219.5826 66.619,220.1376 67.447,220.8716 C68.275,221.6066 68.908,222.5156 69.345,223.5986 C69.783,224.6816 70.002,225.9316 70.002,227.3486 C70.002,228.6196 69.869,229.8516 69.603,231.0436 C69.337,232.2366 68.947,233.3566 68.431,234.4036 Z M467.301,230.5776 C467.027,230.2806 467.027,229.8596 467.301,229.5636 L487.407,207.7836 C488.633,206.4556 487.542,204.4896 485.58,204.4896 L7.98,204.4896 C4.73,204.4896 2.096,206.7726 2.096,209.5886 L2.096,250.5486 C2.096,253.3666 4.732,255.6516 7.984,255.6516 L485.247,255.6516 C487.343,255.6516 488.509,253.5506 487.199,252.1316 L467.301,230.5776 Z"/>
    </g>
  </g>
</svg>
