<svg xmlns="http://www.w3.org/2000/svg" width="488" height="256" viewBox="0 0 488 256">
  <g fill="none" fill-rule="evenodd" transform="translate(-6 -22)">
    <polygon fill="#FFF" points="68.703 200.373 68.703 151.535 35.209 151.535 35.209 200.373 7.82 200.373 7.82 86.033 35.209 86.033 35.209 130.251 68.703 130.251 68.703 86.033 96.092 86.033 96.092 200.373"/>
    <path fill="#FFF" d="M143.6131,155.9897 L168.0321,155.9897 L156.3171,107.6467 L155.4921,107.6467 L143.6131,155.9897 Z M172.4861,175.7887 L139.3231,175.7887 L133.3831,200.3727 L104.5091,200.3727 L139.6531,86.0327 L172.8161,86.0327 L207.7951,200.3727 L178.4261,200.3727 L172.4861,175.7887 Z"/>
    <polygon fill="#FFF" points="216.213 200.373 216.213 86.033 243.602 86.033 243.602 178.759 288.315 178.759 285.345 200.373"/>
    <polygon fill="#FFF" points="296.566 200.373 296.566 86.033 323.955 86.033 323.955 178.759 368.668 178.759 365.698 200.373"/>
    <g transform="translate(6 22)">
      <path fill="#FFF" d="M17.8572 54.1142C10.0162 54.1142 4.0662 51.3842.0762 47.4632L5.0452 42.0032C8.4762 45.1532 12.5372 46.9732 17.5072 46.9732 22.6882 46.9732 26.4682 44.4532 26.4682 39.7622 26.4682 35.7722 24.3682 33.8822 17.0172 31.5722 6.6562 28.4212 2.3852 24.3612 2.3852 17.0102 2.3852 8.8192 9.5262 3.6382 18.9772 3.6382 26.0482 3.6382 30.8082 5.7392 34.9392 9.5892L30.2492 14.9102C26.9592 11.9692 23.5282 10.7092 19.6072 10.7092 15.1272 10.7092 11.9772 12.6702 11.9772 16.4502 11.9772 19.9502 13.7272 21.4902 21.7782 24.0102 30.2492 26.7412 36.1292 30.1712 36.1292 39.2022 36.1292 47.9532 29.2682 54.1142 17.8572 54.1142M62.5174 43.0527L62.5174 35.6327 59.3674 35.6327C52.4364 35.6327 49.9854 37.9427 49.9854 42.0027 49.9854 45.6427 51.6654 47.6037 55.3754 47.6037 58.3164 47.6037 60.7664 45.9237 62.5174 43.0527zM71.1984 43.4727C71.1984 46.2737 71.9674 47.3237 73.7884 48.0237L71.8284 53.9737C67.9074 53.6237 65.2464 52.2237 63.8474 49.0037 61.1864 52.5037 57.0564 54.1147 52.5764 54.1147 45.0154 54.1147 40.3944 49.4237 40.3944 42.4927 40.3944 34.6517 46.6254 30.2417 57.9664 30.2417L62.5174 30.2417 62.5174 28.1417C62.5174 23.4507 60.3464 21.8407 55.1654 21.8407 52.7864 21.8407 49.2864 22.4007 45.5044 23.7307L43.3344 17.5707C48.0254 15.8207 52.7154 14.9797 56.4964 14.9797 66.9274 14.9797 71.1984 19.4607 71.1984 27.5807L71.1984 43.4727zM82.0447 53.0639L82.0447 16.0299 89.8157 16.0299 90.4457 20.6499C93.5967 16.8699 97.3067 14.9799 101.2967 14.9799 106.0577 14.9799 108.9277 17.0099 110.2577 20.6499 113.4077 17.0099 117.3987 14.9799 121.3187 14.9799 128.1097 14.9799 131.1197 19.0409 131.1197 25.9709L131.1197 53.0639 122.1587 53.0639 122.1587 27.1609C122.1587 23.2409 121.0387 21.7009 118.1687 21.7009 115.5087 21.7009 112.9187 23.9409 111.0987 26.8109L111.0987 53.0639 102.1377 53.0639 102.1377 27.0219C102.1377 23.1709 100.9467 21.7009 98.1467 21.7009 95.4857 21.7009 92.8257 23.9409 91.0057 26.8109L91.0057 53.0639 82.0447 53.0639zM160.657 43.0527L160.657 35.6327 157.507 35.6327C150.576 35.6327 148.126 37.9427 148.126 42.0027 148.126 45.6427 149.805 47.6037 153.515 47.6037 156.456 47.6037 158.906 45.9237 160.657 43.0527zM169.338 43.4727C169.338 46.2737 170.107 47.3237 171.928 48.0237L169.968 53.9737C166.048 53.6237 163.386 52.2237 161.987 49.0037 159.327 52.5037 155.196 54.1147 150.716 54.1147 143.155 54.1147 138.534 49.4237 138.534 42.4927 138.534 34.6517 144.764 30.2417 156.106 30.2417L160.657 30.2417 160.657 28.1417C160.657 23.4507 158.486 21.8407 153.305 21.8407 150.926 21.8407 147.426 22.4007 143.645 23.7307L141.474 17.5707C146.165 15.8207 150.855 14.9797 154.636 14.9797 165.067 14.9797 169.338 19.4607 169.338 27.5807L169.338 43.4727zM201.3269 26.8813C201.3269 23.1713 199.9269 21.7003 196.7759 21.7003 193.6959 21.7003 191.1759 24.0813 189.1449 26.8813L189.1449 53.0643 180.1839 53.0643 180.1839 16.0303 187.9559 16.0303 188.5859 20.6503C191.7359 16.9403 195.8659 14.9803 200.2069 14.9803 207.0669 14.9803 210.2879 19.0403 210.2879 25.9713L210.2879 53.0643 201.3269 53.0643 201.3269 26.8813zM242.2068 51.3139C239.6858 53.2039 236.1158 54.1139 232.9658 54.1139 224.7048 54.0439 221.7648 49.3539 221.7648 41.7929L221.7648 22.4009 216.0938 22.4009 216.0938 16.0299 221.7648 16.0299 221.7648 7.8389 230.7258 6.7889 230.7258 16.0299 239.7568 16.0299 238.7758 22.4009 230.7258 22.4009 230.7258 41.7929C230.7258 45.4329 231.9158 46.9029 234.6448 46.9029 236.1158 46.9029 237.4458 46.4829 239.0568 45.5029L242.2068 51.3139zM247.3836 53.0639L247.3836 1.2589 256.3446.3489 256.3446 20.2309C259.3556 16.8699 263.1356 14.9799 267.4056 14.9799 274.2666 14.9799 277.4876 19.0409 277.4876 25.9709L277.4876 53.0639 268.5266 53.0639 268.5266 26.8809C268.5266 23.1709 267.1256 21.7009 263.9756 21.7009 260.8956 21.7009 258.3746 24.0809 256.3446 26.8809L256.3446 53.0639 247.3836 53.0639zM306.9558 43.0527L306.9558 35.6327 303.8058 35.6327C296.8748 35.6327 294.4248 37.9427 294.4248 42.0027 294.4248 45.6427 296.1038 47.6037 299.8138 47.6037 302.7548 47.6037 305.2048 45.9237 306.9558 43.0527zM315.6368 43.4727C315.6368 46.2737 316.4058 47.3237 318.2268 48.0237L316.2668 53.9737C312.3468 53.6237 309.6848 52.2237 308.2858 49.0037 305.6258 52.5037 301.4948 54.1147 297.0148 54.1147 289.4538 54.1147 284.8328 49.4237 284.8328 42.4927 284.8328 34.6517 291.0628 30.2417 302.4048 30.2417L306.9558 30.2417 306.9558 28.1417C306.9558 23.4507 304.7848 21.8407 299.6038 21.8407 297.2248 21.8407 293.7248 22.4007 289.9438 23.7307L287.7728 17.5707C292.4638 15.8207 297.1538 14.9797 300.9348 14.9797 311.3658 14.9797 315.6368 19.4607 315.6368 27.5807L315.6368 43.4727z"/>
      <polygon fill="#FF8540" points="369.095 108.052 413.773 108.02 428.496 64.373 442.139 108.153 487.139 108.142 452.261 136.482 464.9 177.938 428.045 153.024 391.513 178.136 403.954 136.119"/>
      <path fill="#0275AE" d="M485.2474,255.6514 L7.9834,255.6514 C4.7314,255.6514 2.0954,253.3664 2.0954,250.5484 L2.0954,209.5884 C2.0954,206.7724 4.7304,204.4894 7.9804,204.4894 L485.5794,204.4894 C487.5414,204.4894 488.6324,206.4564 487.4064,207.7834 L467.3004,229.5634 C467.0274,229.8594 467.0274,230.2814 467.3004,230.5774 L487.1994,252.1324 C488.5084,253.5504 487.3434,255.6514 485.2474,255.6514"/>
      <path fill="#FFF" d="M55.1265 239.5049C56.6265 239.5049 57.9645 239.1999 59.1425 238.5909 60.3185 237.9819 61.3135 237.1269 62.1265 236.0279 62.9385 234.9299 63.5585 233.6189 63.9855 232.0989 64.4125 230.5779 64.6265 228.9059 64.6265 227.0829 64.6265 225.9689 64.4955 225.0019 64.2355 224.1849 63.9755 223.3669 63.6035 222.6929 63.1185 222.1609 62.6345 221.6299 62.0455 221.2359 61.3535 220.9819 60.6595 220.7269 59.8865 220.5989 59.0325 220.5989L57.6895 220.5989 53.6895 239.5049 55.1265 239.5049zM45.5795 239.7859L46.0325 239.7859C46.3655 239.7859 46.6905 239.7659 47.0095 239.7239 47.3265 239.6819 47.6155 239.5939 47.8765 239.4579 48.1365 239.3219 48.3625 239.1299 48.5565 238.8799 48.7485 238.6299 48.8865 238.2969 48.9705 237.8799L52.2985 222.1609C52.3395 222.0469 52.3735 221.9159 52.3995 221.7709 52.4255 221.6249 52.4385 221.5099 52.4385 221.4269 52.4385 221.1969 52.3815 221.0099 52.2675 220.8639 52.1515 220.7189 51.9935 220.6069 51.7905 220.5279 51.5875 220.4499 51.3425 220.3989 51.0565 220.3719 50.7695 220.3459 50.4595 220.3329 50.1265 220.3329L49.7205 220.3329 50.0645 218.6459 60.2985 218.6459C61.8295 218.6459 63.1965 218.8329 64.3995 219.2079 65.6035 219.5829 66.6185 220.1379 67.4465 220.8719 68.2745 221.6069 68.9075 222.5159 69.3455 223.5989 69.7825 224.6819 70.0015 225.9319 70.0015 227.3489 70.0015 228.6189 69.8685 229.8519 69.6035 231.0439 69.3375 232.2359 68.9465 233.3569 68.4315 234.4029 67.9155 235.4499 67.2765 236.4079 66.5175 237.2779 65.7565 238.1489 64.8765 238.8959 63.8765 239.5209 62.8765 240.1459 61.7595 240.6299 60.5245 240.9739 59.2905 241.3169 57.9485 241.4889 56.5015 241.4889L45.2355 241.4889 45.5795 239.7859zM70.189 239.7861L70.611 239.7861C70.944 239.7861 71.269 239.7651 71.587 239.7241 71.905 239.6821 72.194 239.5941 72.455 239.4581 72.714 239.3221 72.941 239.1301 73.134 238.8801 73.327 238.6301 73.464 238.2971 73.548 237.8801L76.876 222.1611C76.918 222.0471 76.952 221.9161 76.978 221.7701 77.003 221.6251 77.017 221.5101 77.017 221.4271 77.017 221.1971 76.96 221.0101 76.845 220.8641 76.73 220.7191 76.572 220.6061 76.369 220.5281 76.166 220.4501 75.92 220.3981 75.634 220.3721 75.347 220.3461 75.038 220.3331 74.705 220.3331L74.298 220.3331 74.642 218.6451 92.017 218.6451 90.892 224.5981 88.626 224.5981C88.636 224.5251 88.65 224.3951 88.666 224.2081 88.681 224.0201 88.697 223.8251 88.712 223.6221 88.728 223.4191 88.744 223.2311 88.759 223.0591 88.775 222.8881 88.783 222.7811 88.783 222.7391 88.783 222.4471 88.741 222.1721 88.658 221.9111 88.574 221.6501 88.444 221.4221 88.267 221.2241 88.089 221.0251 87.858 220.8721 87.572 220.7631 87.285 220.6531 86.933 220.5991 86.517 220.5991L82.267 220.5991 80.564 228.5981 87.83 228.5981 87.408 230.5201 80.142 230.5201 78.22 239.5361 83.283 239.5361C83.783 239.5361 84.23 239.4661 84.627 239.3251 85.022 239.1841 85.366 238.9941 85.658 238.7551 85.949 238.5151 86.197 238.2361 86.4 237.9191 86.603 237.6011 86.767 237.2651 86.892 236.9111L87.408 235.5361 89.689 235.5361 88.205 241.4891 69.845 241.4891 70.189 239.7861zM123.5952 218.6455L123.2512 220.3325 122.8292 220.3325C122.4862 220.3325 122.1522 220.3565 121.8292 220.4035 121.5062 220.4505 121.2092 220.5415 120.9392 220.6765 120.6672 220.8125 120.4362 221.0095 120.2432 221.2705 120.0502 221.5315 119.9072 221.8695 119.8142 222.2865L116.5332 237.9735C116.4912 238.0875 116.4562 238.2185 116.4312 238.3645 116.4052 238.5095 116.3922 238.6245 116.3922 238.7075 116.3922 238.9375 116.4492 239.1225 116.5642 239.2625 116.6782 239.4035 116.8372 239.5125 117.0402 239.5905 117.2432 239.6685 117.4882 239.7205 117.7752 239.7475 118.0612 239.7735 118.3702 239.7865 118.7042 239.7865L119.1112 239.7865 118.7672 241.4895 107.8612 241.4895 108.2042 239.7865 108.6262 239.7865C108.9702 239.7865 109.3032 239.7655 109.6262 239.7235 109.9492 239.6815 110.2432 239.5905 110.5092 239.4505 110.7752 239.3095 111.0062 239.1145 111.2042 238.8645 111.4022 238.6145 111.5422 238.2755 111.6262 237.8485L115.0172 221.8015 104.4232 241.4895 102.2202 241.4895 99.6262 221.8015 96.2362 237.7075C96.1832 237.9475 96.1442 238.1535 96.1182 238.3255 96.0922 238.4975 96.0792 238.6245 96.0792 238.7075 96.0792 238.9375 96.1362 239.1225 96.2512 239.2625 96.3662 239.4035 96.5272 239.5125 96.7362 239.5905 96.9442 239.6685 97.1912 239.7205 97.4782 239.7475 97.7642 239.7735 98.0742 239.7865 98.4082 239.7865L98.5172 239.7865 98.1582 241.4895 90.0952 241.4895 90.4392 239.7865 90.8612 239.7865C91.1942 239.7865 91.5192 239.7655 91.8372 239.7235 92.1552 239.6815 92.4442 239.5935 92.7042 239.4575 92.9642 239.3225 93.1912 239.1295 93.3842 238.8795 93.5762 238.6295 93.7142 238.2965 93.7982 237.8795L97.0642 222.5205C97.1992 221.9685 97.2672 221.6035 97.2672 221.4265 97.2672 221.1975 97.2092 221.0095 97.0952 220.8645 96.9802 220.7185 96.8222 220.6065 96.6182 220.5285 96.4152 220.4505 96.1702 220.3985 95.8842 220.3725 95.5972 220.3455 95.2872 220.3325 94.9542 220.3325L94.5482 220.3325 94.8922 218.6455 103.8142 218.6455 105.9702 234.1925 114.3452 218.6455 123.5952 218.6455zM128.5327 233.7393C128.5327 234.7913 128.6437 235.6953 128.8687 236.4503 129.0927 237.2053 129.3997 237.8253 129.7907 238.3093 130.1807 238.7943 130.6417 239.1503 131.1737 239.3803 131.7047 239.6093 132.2717 239.7233 132.8767 239.7233 133.7617 239.7233 134.5657 239.5103 135.2907 239.0833 136.0137 238.6563 136.6627 238.0863 137.2357 237.3723 137.8077 236.6583 138.3057 235.8413 138.7277 234.9193 139.1497 233.9973 139.4987 233.0413 139.7747 232.0523 140.0507 231.0623 140.2567 230.0753 140.3917 229.0913 140.5267 228.1063 140.5957 227.1923 140.5957 226.3483 140.5957 225.3063 140.4857 224.4113 140.2667 223.6613 140.0487 222.9113 139.7487 222.2913 139.3687 221.8013 138.9877 221.3123 138.5327 220.9503 138.0017 220.7163 137.4707 220.4813 136.8917 220.3643 136.2667 220.3643 135.3817 220.3643 134.5767 220.5783 133.8527 221.0053 133.1287 221.4313 132.4797 222.0023 131.9077 222.7163 131.3347 223.4293 130.8347 224.2473 130.4077 225.1693 129.9797 226.0913 129.6287 227.0493 129.3527 228.0443 129.0767 229.0393 128.8707 230.0283 128.7357 231.0123 128.5997 231.9973 128.5327 232.9063 128.5327 233.7393M123.3137 232.9733C123.3137 231.9533 123.4407 230.8803 123.6967 229.7553 123.9517 228.6303 124.3347 227.5233 124.8447 226.4343 125.3547 225.3453 125.9907 224.3093 126.7517 223.3253 127.5117 222.3413 128.3937 221.4763 129.3997 220.7313 130.4047 219.9863 131.5377 219.3923 132.7987 218.9503 134.0577 218.5083 135.4387 218.2863 136.9387 218.2863 138.1157 218.2863 139.2377 218.4583 140.3057 218.8013 141.3737 219.1453 142.3137 219.6763 143.1267 220.3953 143.9387 221.1143 144.5847 222.0253 145.0637 223.1303 145.5427 224.2343 145.7827 225.5513 145.7827 227.0833 145.7827 228.0623 145.6597 229.1093 145.4157 230.2233 145.1707 231.3383 144.8007 232.4423 144.3057 233.5363 143.8107 234.6303 143.1907 235.6763 142.4467 236.6773 141.7017 237.6773 140.8267 238.5593 139.8217 239.3253 138.8157 240.0913 137.6807 240.7033 136.4157 241.1613 135.1497 241.6193 133.7567 241.8483 132.2357 241.8483 130.9747 241.8483 129.8007 241.6583 128.7127 241.2783 127.6237 240.8983 126.6807 240.3333 125.8847 239.5833 125.0877 238.8333 124.4597 237.9063 124.0017 236.8023 123.5427 235.6973 123.3137 234.4223 123.3137 232.9733M159.5015 239.1143C160.2405 239.1143 160.9075 239.0313 161.5015 238.8643 162.0955 238.6973 162.6265 238.4763 163.0955 238.2003 163.5635 237.9243 163.9755 237.6143 164.3295 237.2703 164.6835 236.9263 164.9955 236.5723 165.2675 236.2083 165.3925 236.3013 165.5145 236.4473 165.6345 236.6453 165.7535 236.8433 165.8135 237.0623 165.8135 237.3023 165.8135 237.8333 165.6515 238.3673 165.3295 238.9033 165.0065 239.4393 164.5295 239.9243 163.8995 240.3563 163.2695 240.7893 162.4905 241.1373 161.5645 241.4033 160.6365 241.6693 159.5685 241.8023 158.3605 241.8023 156.8295 241.8023 155.4625 241.6113 154.2595 241.2313 153.0565 240.8513 152.0405 240.2943 151.2125 239.5593 150.3845 238.8253 149.7515 237.9243 149.3135 236.8563 148.8765 235.7893 148.6575 234.5723 148.6575 233.2083 148.6575 231.9273 148.8085 230.6663 149.1105 229.4263 149.4125 228.1873 149.8505 227.0103 150.4235 225.8953 150.9955 224.7813 151.6965 223.7553 152.5245 222.8173 153.3535 221.8803 154.2905 221.0673 155.3375 220.3803 156.3845 219.6923 157.5325 219.1563 158.7825 218.7703 160.0325 218.3853 161.3705 218.1923 162.7985 218.1923 163.8605 218.1923 164.7905 218.2833 165.5875 218.4663 166.3845 218.6483 167.0455 218.9033 167.5715 219.2313 168.0975 219.5593 168.4905 219.9613 168.7515 220.4343 169.0115 220.9083 169.1425 221.4313 169.1425 222.0053 169.1425 222.4733 169.0265 222.8853 168.7985 223.2393 168.5685 223.5933 168.2535 223.8923 167.8535 224.1373 167.4515 224.3833 166.9755 224.5673 166.4235 224.6923 165.8705 224.8173 165.2725 224.8803 164.6265 224.8803 164.6265 224.4313 164.5955 223.9373 164.5325 223.3953 164.4705 222.8533 164.3425 222.3483 164.1495 221.8803 163.9565 221.4113 163.6835 221.0203 163.3295 220.7083 162.9755 220.3953 162.5015 220.2393 161.9075 220.2393 161.0635 220.2393 160.2845 220.4313 159.5715 220.8173 158.8575 221.2033 158.2065 221.7263 157.6185 222.3873 157.0295 223.0493 156.5095 223.8173 156.0565 224.6923 155.6035 225.5673 155.2225 226.4923 154.9155 227.4663 154.6075 228.4393 154.3735 229.4343 154.2125 230.4503 154.0505 231.4663 153.9705 232.4473 153.9705 233.3953 153.9705 235.2183 154.4335 236.6273 155.3605 237.6223 156.2875 238.6173 157.6675 239.1143 159.5015 239.1143M177.7202 229.708L179.7042 229.708C180.3812 229.708 181.0142 229.609 181.6032 229.411 182.1912 229.213 182.7012 228.903 183.1342 228.481 183.5662 228.06 183.9072 227.513 184.1572 226.841 184.4072 226.169 184.5322 225.354 184.5322 224.396 184.5322 223.677 184.4702 223.072 184.3452 222.583 184.2202 222.094 184.0272 221.695 183.7672 221.388 183.5062 221.08 183.1782 220.861 182.7822 220.731 182.3862 220.602 181.9232 220.536 181.3922 220.536L179.7672 220.536 177.7202 229.708zM182.3612 218.645C184.9122 218.645 186.8192 219.088 188.0792 219.974 189.3392 220.859 189.9702 222.197 189.9702 223.989 189.9702 225.072 189.7952 225.994 189.4472 226.755 189.0972 227.516 188.6502 228.153 188.1032 228.669 187.5562 229.185 186.9442 229.594 186.2672 229.895 185.5892 230.197 184.9232 230.427 184.2672 230.583L186.4862 236.536C186.7042 237.141 186.9172 237.65 187.1262 238.067 187.3342 238.484 187.5562 238.82 187.7902 239.075 188.0252 239.33 188.2802 239.513 188.5562 239.622 188.8312 239.731 189.1522 239.786 189.5172 239.786L189.6422 239.786 189.2982 241.489 188.9702 241.489C187.8552 241.489 186.8892 241.442 186.0722 241.349 185.2532 241.255 184.5532 241.075 183.9702 240.81 183.3862 240.544 182.9022 240.174 182.5172 239.7 182.1312 239.227 181.8192 238.609 181.5792 237.849L179.5642 231.567 177.3612 231.567 176.1112 237.427C176.0272 237.812 175.9702 238.102 175.9392 238.294 175.9082 238.486 175.8922 238.625 175.8922 238.708 175.8922 238.937 175.9492 239.122 176.0642 239.263 176.1782 239.403 176.3392 239.513 176.5482 239.591 176.7562 239.669 177.0032 239.721 177.2902 239.747 177.5762 239.773 177.8862 239.786 178.2202 239.786L179.2822 239.786 178.9232 241.489 167.2822 241.489 167.6262 239.786 168.0482 239.786C168.3812 239.786 168.7062 239.766 169.0252 239.724 169.3422 239.682 169.6312 239.594 169.8922 239.458 170.1522 239.322 170.3782 239.13 170.5722 238.88 170.7642 238.63 170.9022 238.297 170.9862 237.88L174.2512 222.521C174.3862 221.969 174.4542 221.604 174.4542 221.427 174.4542 221.197 174.3972 221.01 174.2822 220.864 174.1672 220.719 174.0092 220.606 173.8062 220.528 173.6032 220.45 173.3582 220.398 173.0722 220.372 172.7842 220.346 172.4752 220.333 172.1422 220.333L171.7362 220.333 172.0792 218.645 182.3612 218.645z"/>
      <path fill="#FFF" d="M204.4702 226.6455C204.4172 226.1765 204.3682 225.7365 204.3222 225.3255 204.2752 224.9145 204.2332 224.5155 204.1972 224.1295 204.1592 223.7445 204.1282 223.3695 204.1032 223.0045 204.0762 222.6405 204.0582 222.2655 204.0482 221.8795 203.8922 222.2655 203.7362 222.6225 203.5792 222.9505 203.4232 223.2785 203.2562 223.6115 203.0792 223.9505 202.9022 224.2895 202.7062 224.6485 202.4932 225.0285 202.2802 225.4085 202.0322 225.8485 201.7512 226.3485L198.5792 232.0205 205.0482 232.0205 204.4702 226.6455zM197.4862 233.9735L195.9232 236.8485C195.7142 237.2345 195.5612 237.5725 195.4622 237.8645 195.3632 238.1565 195.3142 238.4165 195.3142 238.6455 195.3142 239.0415 195.4592 239.3305 195.7512 239.5125 196.0422 239.6955 196.4952 239.7865 197.1112 239.7865L197.7512 239.7865 197.3922 241.4895 189.0792 241.4895 189.4232 239.7865 190.0952 239.7865C190.3872 239.7865 190.6442 239.7515 190.8682 239.6845 191.0922 239.6175 191.3082 239.4895 191.5172 239.3015 191.7252 239.1145 191.9412 238.8595 192.1652 238.5365 192.3892 238.2125 192.6472 237.8015 192.9392 237.3015L203.7982 218.6455 208.1732 218.6455 210.8612 237.4895C210.9122 237.8225 210.9832 238.1295 211.0722 238.4115 211.1592 238.6925 211.2772 238.9345 211.4232 239.1375 211.5692 239.3405 211.7532 239.4995 211.9782 239.6145 212.2012 239.7285 212.4802 239.7865 212.8142 239.7865L213.3922 239.7865 213.0482 241.4895 202.4862 241.4895 202.8292 239.7865 203.5642 239.7865C204.2512 239.7865 204.7982 239.6795 205.2042 239.4655 205.6112 239.2515 205.8142 238.9115 205.8142 238.4425 205.8142 238.2655 205.8082 238.0905 205.7982 237.9185 205.7872 237.7475 205.7722 237.5835 205.7512 237.4265L205.2672 233.9735 197.4862 233.9735zM216.1421 241.4893L216.5011 239.7863 216.9081 239.7863C217.2411 239.7863 217.5661 239.7653 217.8841 239.7233 218.2021 239.6813 218.4911 239.5933 218.7511 239.4583 219.0111 239.3223 219.2381 239.1303 219.4311 238.8803 219.6231 238.6303 219.7671 238.2973 219.8611 237.8803L223.4701 220.5983 220.9081 220.5983C220.4081 220.5983 219.9831 220.6613 219.6341 220.7863 219.2851 220.9113 218.9831 221.0953 218.7281 221.3413 218.4721 221.5863 218.2561 221.8853 218.0791 222.2393 217.9021 222.5933 217.7361 223.0053 217.5791 223.4733L217.1261 224.8483 214.9861 224.8483 216.4541 218.6453 236.3611 218.6453 235.2511 224.8483 233.0951 224.8483C233.1051 224.7753 233.1231 224.6113 233.1501 224.3563 233.1751 224.1013 233.2041 223.8283 233.2361 223.5363 233.2671 223.2443 233.2951 222.9763 233.3221 222.7313 233.3471 222.4863 233.3611 222.3383 233.3611 222.2863 233.3611 221.7233 233.1911 221.3023 232.8531 221.0203 232.5141 220.7393 231.9331 220.5983 231.1111 220.5983L228.5641 220.5983 224.8761 237.9733C224.8551 238.0883 224.8301 238.2183 224.7981 238.3643 224.7671 238.5103 224.7511 238.6253 224.7511 238.7083 224.7511 238.9373 224.8081 239.1223 224.9231 239.2623 225.0381 239.4033 225.1991 239.5123 225.4081 239.5913 225.6161 239.6693 225.8631 239.7203 226.1501 239.7473 226.4361 239.7733 226.7461 239.7863 227.0801 239.7863L227.5011 239.7863 227.1581 241.4893 216.1421 241.4893zM255.6113 226.5205L251.5493 226.5205 248.5173 240.8175C248.2773 241.9525 247.9673 242.9475 247.5883 243.8015 247.2073 244.6555 246.7803 245.3925 246.3063 246.0125 245.8323 246.6315 245.3193 247.1455 244.7673 247.5515 244.2143 247.9575 243.6473 248.2805 243.0643 248.5205 242.4803 248.7595 241.8873 248.9285 241.2823 249.0285 240.6793 249.1265 240.0903 249.1765 239.5173 249.1765 239.3613 249.1765 239.1893 249.1685 239.0013 249.1535 238.8143 249.1375 238.6323 249.1165 238.4543 249.0905 238.2783 249.0645 238.1113 249.0365 237.9543 249.0045 237.7983 248.9735 237.6683 248.9425 237.5643 248.9115L237.9543 247.0515C238.1323 247.1035 238.3613 247.1555 238.6423 247.2075 238.9233 247.2595 239.1843 247.2865 239.4233 247.2865 239.9443 247.2865 240.4053 247.1975 240.8063 247.0205 241.2073 246.8425 241.5673 246.5435 241.8843 246.1225 242.2013 245.7005 242.4873 245.1345 242.7433 244.4265 242.9983 243.7175 243.2363 242.8325 243.4543 241.7705L246.6893 226.5205 243.7823 226.5205 244.0953 225.0045 247.1733 224.3325 247.4233 223.1455C247.6743 222.0935 248.0073 221.1735 248.4243 220.3875 248.8403 219.6015 249.3553 218.9455 249.9703 218.4185 250.5853 217.8925 251.3063 217.4995 252.1343 217.2395 252.9633 216.9785 253.9183 216.8485 255.0023 216.8485 255.8243 216.8485 256.5503 216.9215 257.1813 217.0675 257.8113 217.2125 258.3383 217.4115 258.7593 217.6615 259.1813 217.9115 259.4993 218.2055 259.7133 218.5435 259.9253 218.8825 260.0333 219.2445 260.0333 219.6295 260.0333 220.3375 259.7203 220.8905 259.0953 221.2865 258.4703 221.6815 257.5583 221.8795 256.3613 221.8795 256.3613 221.4735 256.3383 221.0805 256.2913 220.7005 256.2443 220.3205 256.1633 219.9845 256.0483 219.6925 255.9333 219.4005 255.7833 219.1685 255.5953 218.9975 255.4083 218.8255 255.1683 218.7395 254.8773 218.7395 254.1993 218.7395 253.6813 219.0315 253.3223 219.6145 252.9633 220.1975 252.6733 221.0875 252.4553 222.2865L252.0333 224.3325 256.0643 224.3325 255.6113 226.5205zM263.5801 239.5049C264.1521 239.5049 264.6711 239.3409 265.1351 239.0129 265.5981 238.6849 266.0151 238.2519 266.3851 237.7159 266.7541 237.1799 267.0741 236.5669 267.3461 235.8799 267.6161 235.1929 267.8381 234.4839 268.0101 233.7549 268.1821 233.0259 268.3111 232.3099 268.4001 231.6069 268.4881 230.9029 268.5331 230.2709 268.5331 229.7079 268.5331 228.4469 268.3161 227.5409 267.8851 226.9889 267.4521 226.4379 266.8611 226.1609 266.1111 226.1609 265.5691 226.1609 265.0691 226.3169 264.6111 226.6299 264.1521 226.9419 263.7381 227.3589 263.3691 227.8799 262.9991 228.4009 262.6741 228.9969 262.3931 229.6689 262.1111 230.3409 261.8741 231.0359 261.6821 231.7549 261.4881 232.4739 261.3461 233.1899 261.2521 233.9029 261.1581 234.6169 261.1111 235.2709 261.1111 235.8639 261.1111 237.1659 261.3301 238.0989 261.7681 238.6609 262.2051 239.2239 262.8091 239.5049 263.5801 239.5049M256.2211 235.0829C256.2211 234.2809 256.3141 233.4529 256.5021 232.5989 256.6891 231.7439 256.9731 230.9059 257.3531 230.0829 257.7331 229.2599 258.2101 228.4819 258.7831 227.7469 259.3551 227.0129 260.0301 226.3689 260.8071 225.8169 261.5821 225.2659 262.4631 224.8279 263.4471 224.5049 264.4321 224.1819 265.5221 224.0209 266.7211 224.0209 267.6371 224.0209 268.5021 224.1489 269.3141 224.4029 270.1271 224.6579 270.8351 225.0569 271.4391 225.5989 272.0431 226.1409 272.5221 226.8359 272.8771 227.6849 273.2301 228.5329 273.4081 229.5519 273.4081 230.7389 273.4081 231.5099 273.3191 232.3179 273.1431 233.1609 272.9651 234.0049 272.6911 234.8359 272.3221 235.6529 271.9521 236.4709 271.4831 237.2519 270.9161 237.9969 270.3481 238.7419 269.6791 239.3959 268.9081 239.9579 268.1371 240.5209 267.2621 240.9689 266.2831 241.3019 265.3041 241.6349 264.2101 241.8019 263.0021 241.8019 262.0021 241.8019 261.0851 241.6629 260.2521 241.3879 259.4181 241.1109 258.7051 240.6949 258.1111 240.1379 257.5181 239.5799 257.0541 238.8799 256.7211 238.0359 256.3871 237.1919 256.2211 236.2079 256.2211 235.0829M278.8145 227.1455C278.8145 226.7495 278.6835 226.4655 278.4235 226.2935 278.1635 226.1225 277.7305 226.0365 277.1275 226.0365L276.5485 226.0365 276.8305 224.3325 283.9085 224.3325 283.2365 228.7235 283.3925 228.7235C283.7565 227.9535 284.1245 227.2755 284.4945 226.6925 284.8635 226.1095 285.2695 225.6195 285.7125 225.2235 286.1555 224.8285 286.6585 224.5285 287.2205 224.3255 287.7835 224.1225 288.4395 224.0205 289.1895 224.0205 290.3245 224.0205 291.1685 224.2345 291.7205 224.6615 292.2725 225.0875 292.5485 225.7085 292.5485 226.5205 292.5485 227.6245 292.2255 228.4475 291.5805 228.9895 290.9335 229.5315 289.9965 229.8015 288.7675 229.8015 288.7675 229.3225 288.7445 228.8875 288.6975 228.4975 288.6505 228.1065 288.5665 227.7735 288.4475 227.4975 288.3275 227.2205 288.1665 227.0095 287.9625 226.8645 287.7595 226.7185 287.5065 226.6455 287.2055 226.6455 286.9025 226.6455 286.5855 226.7675 286.2515 227.0125 285.9185 227.2575 285.5855 227.5935 285.2515 228.0205 284.9185 228.4475 284.5925 228.9555 284.2755 229.5435 283.9575 230.1325 283.6525 230.7735 283.3615 231.4655 283.0695 232.1585 282.8035 232.8845 282.5645 233.6455 282.3245 234.4065 282.1215 235.1765 281.9555 235.9585L280.7365 241.4895 275.9085 241.4895 278.6275 228.6295C278.6585 228.4535 278.6975 228.2185 278.7445 227.9265 278.7915 227.6345 278.8145 227.3745 278.8145 227.1455M309.0176 241.8018C307.6946 241.8018 306.5386 241.6818 305.5486 241.4428 304.5586 241.2028 303.7366 240.8748 303.0806 240.4578 302.4236 240.0408 301.9316 239.5488 301.6036 238.9818 301.2756 238.4138 301.1116 237.7968 301.1116 237.1298 301.1116 236.6298 301.2126 236.1928 301.4156 235.8178 301.6196 235.4428 301.9056 235.1298 302.2756 234.8798 302.6446 234.6298 303.0816 234.4428 303.5876 234.3178 304.0926 234.1928 304.6526 234.1298 305.2676 234.1298 305.2676 235.1098 305.3716 235.9578 305.5796 236.6768 305.7886 237.3958 306.0796 237.9918 306.4546 238.4658 306.8296 238.9398 307.2776 239.2908 307.7986 239.5208 308.3196 239.7498 308.8926 239.8648 309.5176 239.8648 310.1216 239.8648 310.6586 239.7788 311.1266 239.6068 311.5956 239.4348 311.9946 239.1998 312.3226 238.9038 312.6506 238.6068 312.9006 238.2578 313.0726 237.8568 313.2446 237.4548 313.3296 237.0258 313.3296 236.5678 313.3296 236.1188 313.2756 235.7078 313.1656 235.3328 313.0566 234.9578 312.8556 234.5938 312.5646 234.2398 312.2726 233.8848 311.8716 233.5258 311.3616 233.1608 310.8506 232.7968 310.1946 232.3958 309.3926 231.9578 308.5586 231.4998 307.8276 231.0288 307.1976 230.5438 306.5666 230.0598 306.0406 229.5358 305.6196 228.9738 305.1976 228.4108 304.8786 227.7938 304.6656 227.1218 304.4526 226.4498 304.3456 225.6928 304.3456 224.8488 304.3456 223.8908 304.5386 223.0098 304.9236 222.2078 305.3086 221.4058 305.8616 220.7158 306.5796 220.1378 307.2986 219.5598 308.1676 219.1118 309.1896 218.7938 310.2096 218.4768 311.3556 218.3178 312.6266 218.3178 313.8146 218.3178 314.8506 218.4108 315.7366 218.5988 316.6216 218.7858 317.3586 219.0408 317.9476 219.3648 318.5356 219.6878 318.9756 220.0678 319.2676 220.5048 319.5586 220.9428 319.7056 221.4108 319.7056 221.9108 319.7056 222.7758 319.3766 223.4548 318.7206 223.9498 318.0646 224.4458 316.9916 224.6928 315.5016 224.6928 315.5016 224.2128 315.4546 223.7128 315.3616 223.1928 315.2676 222.6718 315.1006 222.1958 314.8616 221.7628 314.6216 221.3298 314.2986 220.9738 313.8926 220.6928 313.4866 220.4108 312.9706 220.2708 312.3456 220.2708 311.9176 220.2708 311.4946 220.3378 311.0726 220.4738 310.6506 220.6098 310.2726 220.8128 309.9396 221.0828 309.6056 221.3538 309.3346 221.6958 309.1266 222.1068 308.9176 222.5178 308.8146 223.0048 308.8146 223.5678 308.8146 224.1298 308.9026 224.6098 309.0796 225.0048 309.2566 225.4008 309.5226 225.7678 309.8766 226.1068 310.2306 226.4458 310.6736 226.7738 311.2056 227.0908 311.7366 227.4078 312.3616 227.7598 313.0796 228.1458 314.6946 229.0208 315.8866 229.9868 316.6586 231.0438 317.4286 232.1018 317.8146 233.3128 317.8146 234.6768 317.8146 235.8128 317.6086 236.8228 317.1976 237.7078 316.7856 238.5938 316.1976 239.3378 315.4316 239.9428 314.6656 240.5468 313.7416 241.0078 312.6586 241.3248 311.5746 241.6428 310.3616 241.8018 309.0176 241.8018M319.0176 239.7861L319.4396 239.7861C319.7726 239.7861 320.0976 239.7651 320.4156 239.7241 320.7336 239.6821 321.0226 239.5941 321.2836 239.4581 321.5426 239.3221 321.7696 239.1301 321.9626 238.8801 322.1556 238.6301 322.2926 238.2971 322.3766 237.8801L325.7046 222.1611C325.7466 222.0471 325.7806 221.9161 325.8066 221.7701 325.8316 221.6251 325.8456 221.5101 325.8456 221.4271 325.8456 221.1971 325.7886 221.0101 325.6736 220.8641 325.5586 220.7191 325.4006 220.6061 325.1976 220.5281 324.9946 220.4501 324.7486 220.3981 324.4626 220.3721 324.1756 220.3461 323.8666 220.3331 323.5336 220.3331L323.1266 220.3331 323.4706 218.6451 340.8456 218.6451 339.7206 224.5981 337.4546 224.5981C337.4646 224.5251 337.4786 224.3951 337.4946 224.2081 337.5096 224.0201 337.5256 223.8251 337.5406 223.6221 337.5566 223.4191 337.5726 223.2311 337.5876 223.0591 337.6036 222.8881 337.6116 222.7811 337.6116 222.7391 337.6116 222.4471 337.5696 222.1721 337.4866 221.9111 337.4026 221.6501 337.2726 221.4221 337.0956 221.2241 336.9176 221.0251 336.6866 220.8721 336.4006 220.7631 336.1136 220.6531 335.7616 220.5991 335.3456 220.5991L331.0956 220.5991 329.3926 228.5981 336.6586 228.5981 336.2366 230.5201 328.9706 230.5201 327.0486 239.5361 332.1116 239.5361C332.6116 239.5361 333.0586 239.4661 333.4556 239.3251 333.8506 239.1841 334.1946 238.9941 334.4866 238.7551 334.7776 238.5151 335.0256 238.2361 335.2286 237.9191 335.4316 237.6011 335.5956 237.2651 335.7206 236.9111L336.2366 235.5361 338.5176 235.5361 337.0336 241.4891 318.6736 241.4891 319.0176 239.7861zM356.752 241.4893L348.08 223.3803 345.064 237.7083C345.012 237.9473 344.973 238.1533 344.947 238.3253 344.921 238.4973 344.908 238.6253 344.908 238.7083 344.908 238.9373 344.965 239.1223 345.08 239.2623 345.194 239.4033 345.356 239.5123 345.564 239.5913 345.773 239.6693 346.02 239.7203 346.307 239.7473 346.593 239.7733 346.902 239.7863 347.236 239.7863L347.346 239.7863 346.986 241.4893 338.924 241.4893 339.268 239.7863 339.69 239.7863C340.023 239.7863 340.348 239.7653 340.666 239.7233 340.983 239.6813 341.273 239.5933 341.533 239.4583 341.793 239.3223 342.02 239.1303 342.213 238.8803 342.405 238.6303 342.543 238.2973 342.627 237.8803L345.893 222.5203C346.027 221.9683 346.096 221.6033 346.096 221.4273 346.096 221.1973 346.038 221.0103 345.924 220.8643 345.809 220.7183 345.65 220.6063 345.447 220.5283 345.244 220.4503 344.999 220.3983 344.713 220.3723 344.426 220.3453 344.116 220.3333 343.783 220.3333L343.377 220.3333 343.721 218.6453 350.83 218.6453 358.627 235.0523 361.314 222.4113C361.429 221.9223 361.486 221.5933 361.486 221.4273 361.486 221.1973 361.426 221.0103 361.307 220.8643 361.187 220.7183 361.023 220.6063 360.814 220.5283 360.606 220.4503 360.358 220.3983 360.072 220.3723 359.785 220.3453 359.476 220.3333 359.143 220.3333L359.049 220.3333 359.408 218.6453 367.471 218.6453 367.111 220.3333 366.705 220.3333C366.371 220.3333 366.046 220.3563 365.729 220.4033 365.41 220.4503 365.121 220.5413 364.861 220.6773 364.601 220.8123 364.374 221.0053 364.182 221.2553 363.988 221.5053 363.846 221.8383 363.752 222.2553L359.69 241.4893 356.752 241.4893zM378.7051 226.6455C378.6521 226.1765 378.6031 225.7365 378.5571 225.3255 378.5101 224.9145 378.4681 224.5155 378.4321 224.1295 378.3941 223.7445 378.3631 223.3695 378.3381 223.0045 378.3111 222.6405 378.2931 222.2655 378.2831 221.8795 378.1271 222.2655 377.9711 222.6225 377.8141 222.9505 377.6581 223.2785 377.4911 223.6115 377.3141 223.9505 377.1371 224.2895 376.9411 224.6485 376.7281 225.0285 376.5151 225.4085 376.2671 225.8485 375.9861 226.3485L372.8141 232.0205 379.2831 232.0205 378.7051 226.6455zM371.7211 233.9735L370.1581 236.8485C369.9491 237.2345 369.7961 237.5725 369.6971 237.8645 369.5981 238.1565 369.5491 238.4165 369.5491 238.6455 369.5491 239.0415 369.6941 239.3305 369.9861 239.5125 370.2771 239.6955 370.7301 239.7865 371.3461 239.7865L371.9861 239.7865 371.6271 241.4895 363.3141 241.4895 363.6581 239.7865 364.3301 239.7865C364.6221 239.7865 364.8791 239.7515 365.1031 239.6845 365.3271 239.6175 365.5431 239.4895 365.7521 239.3015 365.9601 239.1145 366.1761 238.8595 366.4001 238.5365 366.6241 238.2125 366.8821 237.8015 367.1741 237.3015L378.0331 218.6455 382.4081 218.6455 385.0961 237.4895C385.1471 237.8225 385.2181 238.1295 385.3071 238.4115 385.3941 238.6925 385.5121 238.9345 385.6581 239.1375 385.8041 239.3405 385.9881 239.4995 386.2131 239.6145 386.4361 239.7285 386.7151 239.7865 387.0491 239.7865L387.6271 239.7865 387.2831 241.4895 376.7211 241.4895 377.0641 239.7865 377.7991 239.7865C378.4861 239.7865 379.0331 239.6795 379.4391 239.4655 379.8461 239.2515 380.0491 238.9115 380.0491 238.4425 380.0491 238.2655 380.0431 238.0905 380.0331 237.9185 380.0221 237.7475 380.0071 237.5835 379.9861 237.4265L379.5021 233.9735 371.7211 233.9735zM390.377 241.4893L390.736 239.7863 391.143 239.7863C391.476 239.7863 391.801 239.7653 392.119 239.7233 392.437 239.6813 392.726 239.5933 392.986 239.4583 393.246 239.3223 393.473 239.1303 393.666 238.8803 393.858 238.6303 394.002 238.2973 394.096 237.8803L397.705 220.5983 395.143 220.5983C394.643 220.5983 394.218 220.6613 393.869 220.7863 393.52 220.9113 393.218 221.0953 392.963 221.3413 392.707 221.5863 392.491 221.8853 392.314 222.2393 392.137 222.5933 391.971 223.0053 391.814 223.4733L391.361 224.8483 389.221 224.8483 390.689 218.6453 410.596 218.6453 409.486 224.8483 407.33 224.8483C407.34 224.7753 407.358 224.6113 407.385 224.3563 407.41 224.1013 407.439 223.8283 407.471 223.5363 407.502 223.2443 407.53 222.9763 407.557 222.7313 407.582 222.4863 407.596 222.3383 407.596 222.2863 407.596 221.7233 407.426 221.3023 407.088 221.0203 406.749 220.7393 406.168 220.5983 405.346 220.5983L402.799 220.5983 399.111 237.9733C399.09 238.0883 399.065 238.2183 399.033 238.3643 399.002 238.5103 398.986 238.6253 398.986 238.7083 398.986 238.9373 399.043 239.1223 399.158 239.2623 399.273 239.4033 399.434 239.5123 399.643 239.5913 399.851 239.6693 400.098 239.7203 400.385 239.7473 400.671 239.7733 400.981 239.7863 401.315 239.7863L401.736 239.7863 401.393 241.4893 390.377 241.4893zM407.5488 239.7861L407.9708 239.7861C408.3038 239.7861 408.6288 239.7651 408.9468 239.7241 409.2648 239.6821 409.5538 239.5941 409.8148 239.4581 410.0738 239.3221 410.3008 239.1301 410.4938 238.8801 410.6868 238.6301 410.8238 238.2971 410.9078 237.8801L414.2358 222.1611C414.2778 222.0471 414.3118 221.9161 414.3378 221.7701 414.3628 221.6251 414.3768 221.5101 414.3768 221.4271 414.3768 221.1971 414.3198 221.0101 414.2048 220.8641 414.0898 220.7191 413.9318 220.6061 413.7288 220.5281 413.5258 220.4501 413.2798 220.3981 412.9938 220.3721 412.7068 220.3461 412.3978 220.3331 412.0648 220.3331L411.6578 220.3331 412.0018 218.6451 429.3768 218.6451 428.2518 224.5981 425.9858 224.5981C425.9958 224.5251 426.0098 224.3951 426.0258 224.2081 426.0408 224.0201 426.0568 223.8251 426.0718 223.6221 426.0878 223.4191 426.1038 223.2311 426.1188 223.0591 426.1348 222.8881 426.1428 222.7811 426.1428 222.7391 426.1428 222.4471 426.1008 222.1721 426.0178 221.9111 425.9338 221.6501 425.8038 221.4221 425.6268 221.2241 425.4488 221.0251 425.2178 220.8721 424.9318 220.7631 424.6448 220.6531 424.2928 220.5991 423.8768 220.5991L419.6268 220.5991 417.9238 228.5981 425.1898 228.5981 424.7678 230.5201 417.5018 230.5201 415.5798 239.5361 420.6428 239.5361C421.1428 239.5361 421.5898 239.4661 421.9868 239.3251 422.3818 239.1841 422.7258 238.9941 423.0178 238.7551 423.3088 238.5151 423.5568 238.2361 423.7598 237.9191 423.9628 237.6011 424.1268 237.2651 424.2518 236.9111L424.7678 235.5361 427.0488 235.5361 425.5648 241.4891 407.2048 241.4891 407.5488 239.7861z"/>
    </g>
  </g>
</svg>
